<svg width="20" height="20" viewBox="0 0 20 20" fill="none" xmlns="http://www.w3.org/2000/svg">
<path fill-rule="evenodd" clip-rule="evenodd" d="M17.3794 12.9196L12.6794 4.21959C12.0923 3.15854 10.9754 2.5 9.76273 2.5C8.5501 2.5 7.43313 3.15854 6.84607 4.21959L2.07107 12.9113C1.51007 13.9435 1.53392 15.1949 2.13386 16.2051C2.73379 17.2152 3.8212 17.8349 4.99607 17.8363H14.4461C15.6199 17.8363 16.7073 17.2189 17.3087 16.2108C17.9101 15.2027 17.937 13.9526 17.3794 12.9196ZM9.04607 8.11959C9.04607 7.77441 9.32589 7.49459 9.67107 7.49459C10.0162 7.49459 10.2961 7.77441 10.2961 8.11959V10.6946C10.2961 11.0398 10.0162 11.3196 9.67107 11.3196C9.32589 11.3196 9.04607 11.0398 9.04607 10.6946V8.11959ZM9.6794 13.7446C10.0246 13.7446 10.3044 13.4648 10.3044 13.1196L10.2961 13.1113C10.2961 12.7707 10.02 12.4946 9.6794 12.4946C9.3361 12.4991 9.05889 12.7763 9.0544 13.1196C9.0544 13.4648 9.33422 13.7446 9.6794 13.7446Z" fill="#FF6D6D"/>
</svg>
