<svg
        width="36"
        height="37"
        viewBox="0 0 36 37"
        fill="none"
        xmlns="http://www.w3.org/2000/svg"
>
    <path
            d="M23.6938 28.5561C24.0109 28.8732 24.189 29.3031 24.189 29.7515C24.189 30.1998 24.0109 30.6298 23.6938 30.9468C23.3768 31.2638 22.9469 31.4419 22.4985 31.4419C22.0502 31.4419 21.6202 31.2638 21.3032 30.9468L10.0532 19.6968C9.89589 19.54 9.77107 19.3537 9.6859 19.1486C9.60073 18.9435 9.55688 18.7236 9.55688 18.5015C9.55688 18.2794 9.60073 18.0594 9.6859 17.8543C9.77107 17.6492 9.89589 17.4629 10.0532 17.3061L21.3032 6.05615C21.6202 5.73913 22.0502 5.56104 22.4985 5.56104C22.9469 5.56104 23.3768 5.73913 23.6938 6.05615C24.0109 6.37317 24.189 6.80313 24.189 7.25146C24.189 7.69979 24.0109 8.12976 23.6938 8.44677L13.6406 18.5001L23.6938 28.5561Z"
            fill="#6100FF"
    />
</svg>