<svg width="25" height="24" viewBox="0 0 25 24" fill="none" xmlns="http://www.w3.org/2000/svg">
<path d="M20.5307 9.53063L13.0307 17.0306C12.9611 17.1004 12.8784 17.1557 12.7873 17.1934C12.6963 17.2312 12.5987 17.2506 12.5001 17.2506C12.4015 17.2506 12.3039 17.2312 12.2129 17.1934C12.1218 17.1557 12.0391 17.1004 11.9695 17.0306L4.46948 9.53063C4.36447 9.42573 4.29294 9.29204 4.26396 9.14648C4.23497 9.00092 4.24982 8.85002 4.30664 8.71291C4.36345 8.57579 4.45967 8.45861 4.58312 8.37621C4.70656 8.29381 4.85168 8.24988 5.0001 8.25H20.0001C20.1485 8.24988 20.2936 8.29381 20.4171 8.37621C20.5405 8.45861 20.6368 8.57579 20.6936 8.71291C20.7504 8.85002 20.7652 9.00092 20.7363 9.14648C20.7073 9.29204 20.6357 9.42573 20.5307 9.53063Z" fill="#343330"/>
</svg>
