<svg width="37" height="36" viewBox="0 0 37 36" fill="none" xmlns="http://www.w3.org/2000/svg">
<path d="M18.5 0.125C14.9647 0.125 11.5087 1.17335 8.56919 3.13748C5.62966 5.10161 3.33858 7.8933 1.98566 11.1595C0.632745 14.4258 0.27876 18.0198 0.968471 21.4872C1.65818 24.9547 3.36061 28.1397 5.86047 30.6395C8.36034 33.1394 11.5454 34.8418 15.0128 35.5315C18.4802 36.2212 22.0742 35.8673 25.3405 34.5143C28.6067 33.1614 31.3984 30.8703 33.3625 27.9308C35.3267 24.9913 36.375 21.5353 36.375 18C36.37 13.2608 34.4851 8.71712 31.134 5.36599C27.7829 2.01487 23.2392 0.130005 18.5 0.125ZM26.3478 14.8478L16.7228 24.4728C16.5951 24.6007 16.4435 24.7021 16.2766 24.7713C16.1096 24.8405 15.9307 24.8761 15.75 24.8761C15.5693 24.8761 15.3904 24.8405 15.2235 24.7713C15.0565 24.7021 14.9049 24.6007 14.7772 24.4728L10.6522 20.3478C10.3942 20.0898 10.2492 19.7399 10.2492 19.375C10.2492 19.0101 10.3942 18.6602 10.6522 18.4022C10.9102 18.1442 11.2601 17.9992 11.625 17.9992C11.9899 17.9992 12.3398 18.1442 12.5978 18.4022L15.75 21.5561L24.4022 12.9022C24.5299 12.7744 24.6816 12.6731 24.8485 12.604C25.0154 12.5348 25.1943 12.4992 25.375 12.4992C25.5557 12.4992 25.7346 12.5348 25.9015 12.604C26.0684 12.6731 26.2201 12.7744 26.3478 12.9022C26.4756 13.0299 26.5769 13.1816 26.646 13.3485C26.7152 13.5154 26.7508 13.6943 26.7508 13.875C26.7508 14.0557 26.7152 14.2346 26.646 14.4015C26.5769 14.5684 26.4756 14.7201 26.3478 14.8478Z" fill="#00C308"/>
</svg>
