<svg width="19" height="19" viewBox="0 0 19 19" fill="none" xmlns="http://www.w3.org/2000/svg">
<path d="M17.7109 0.5H5.71094C5.51203 0.5 5.32126 0.579018 5.18061 0.71967C5.03996 0.860322 4.96094 1.05109 4.96094 1.25V5H1.21094C1.01203 5 0.82126 5.07902 0.680608 5.21967C0.539955 5.36032 0.460938 5.55109 0.460938 5.75V17.75C0.460938 17.9489 0.539955 18.1397 0.680608 18.2803C0.82126 18.421 1.01203 18.5 1.21094 18.5H13.2109C13.4099 18.5 13.6006 18.421 13.7413 18.2803C13.8819 18.1397 13.9609 17.9489 13.9609 17.75V14H17.7109C17.9098 14 18.1006 13.921 18.2413 13.7803C18.3819 13.6397 18.4609 13.4489 18.4609 13.25V1.25C18.4609 1.05109 18.3819 0.860322 18.2413 0.71967C18.1006 0.579018 17.9098 0.5 17.7109 0.5ZM12.4609 17H1.96094V6.5H12.4609V17ZM16.9609 12.5H13.9609V5.75C13.9609 5.55109 13.8819 5.36032 13.7413 5.21967C13.6006 5.07902 13.4099 5 13.2109 5H6.46094V2H16.9609V12.5Z" fill="#D6D6D6"/>
</svg>
