<svg width="32" height="33" viewBox="0 0 32 33" fill="none" xmlns="http://www.w3.org/2000/svg">
<path d="M29.311 14.7284L23.6735 19.6484L25.3622 26.9734C25.4516 27.3563 25.4261 27.7571 25.2889 28.1256C25.1517 28.4941 24.909 28.814 24.591 29.0453C24.273 29.2766 23.8938 29.4091 23.501 29.4261C23.1081 29.4431 22.719 29.3439 22.3822 29.1409L15.9935 25.2659L9.61846 29.1409C9.28168 29.3439 8.89253 29.4431 8.49968 29.4261C8.10683 29.4091 7.72771 29.2766 7.40971 29.0453C7.09171 28.814 6.84895 28.4941 6.71177 28.1256C6.5746 27.7571 6.5491 27.3563 6.63846 26.9734L8.32472 19.6559L2.68597 14.7284C2.38773 14.4712 2.17207 14.1316 2.06604 13.7523C1.96 13.373 1.96831 12.9709 2.08993 12.5963C2.21155 12.2217 2.44105 11.8914 2.74966 11.6467C3.05828 11.402 3.43226 11.2539 3.82472 11.2209L11.2572 10.5772L14.1585 3.65715C14.31 3.29405 14.5655 2.98389 14.8929 2.76572C15.2204 2.54756 15.605 2.43115 15.9985 2.43115C16.3919 2.43115 16.7766 2.54756 17.104 2.76572C17.4314 2.98389 17.687 3.29405 17.8385 3.65715L20.7485 10.5772L28.1785 11.2209C28.5709 11.2539 28.9449 11.402 29.2535 11.6467C29.5621 11.8914 29.7916 12.2217 29.9132 12.5963C30.0349 12.9709 30.0432 13.373 29.9371 13.7523C29.8311 14.1316 29.6155 14.4712 29.3172 14.7284H29.311Z" fill="#C9A8FF"/>
</svg>
