<svg width="48" height="49" viewBox="0 0 48 49" fill="none" xmlns="http://www.w3.org/2000/svg">
<path d="M28.5004 21.4999C28.5004 21.8978 28.3424 22.2793 28.0611 22.5606C27.7798 22.8419 27.3983 22.9999 27.0004 22.9999H22.5004V27.4999C22.5004 27.8978 22.3424 28.2793 22.0611 28.5606C21.7798 28.8419 21.3983 28.9999 21.0004 28.9999C20.6026 28.9999 20.2211 28.8419 19.9398 28.5606C19.6585 28.2793 19.5004 27.8978 19.5004 27.4999V22.9999H15.0004C14.6026 22.9999 14.2211 22.8419 13.9398 22.5606C13.6585 22.2793 13.5004 21.8978 13.5004 21.4999C13.5004 21.1021 13.6585 20.7206 13.9398 20.4393C14.2211 20.158 14.6026 19.9999 15.0004 19.9999H19.5004V15.4999C19.5004 15.1021 19.6585 14.7206 19.9398 14.4393C20.2211 14.158 20.6026 13.9999 21.0004 13.9999C21.3983 13.9999 21.7798 14.158 22.0611 14.4393C22.3424 14.7206 22.5004 15.1021 22.5004 15.4999V19.9999H27.0004C27.3983 19.9999 27.7798 20.158 28.0611 20.4393C28.3424 20.7206 28.5004 21.1021 28.5004 21.4999ZM43.0617 43.5612C42.9224 43.7007 42.7569 43.8113 42.5748 43.8868C42.3927 43.9623 42.1975 44.0011 42.0004 44.0011C41.8033 44.0011 41.6081 43.9623 41.426 43.8868C41.2439 43.8113 41.0785 43.7007 40.9392 43.5612L31.5529 34.1731C28.2861 36.8941 24.096 38.251 19.8543 37.9614C15.6126 37.6718 11.6458 35.758 8.77912 32.6182C5.91247 29.4784 4.36665 25.3543 4.46325 21.1038C4.55985 16.8533 6.29143 12.8036 9.29777 9.79728C12.3041 6.79094 16.3537 5.05937 20.6043 4.96277C24.8548 4.86617 28.9789 6.41198 32.1187 9.27864C35.2585 12.1453 37.1723 16.1121 37.4619 20.3538C37.7515 24.5955 36.3946 28.7856 33.6736 32.0524L43.0617 41.4387C43.2011 41.578 43.3118 41.7434 43.3873 41.9255C43.4628 42.1076 43.5016 42.3028 43.5016 42.4999C43.5016 42.6971 43.4628 42.8923 43.3873 43.0743C43.3118 43.2564 43.2011 43.4219 43.0617 43.5612ZM21.0004 34.9999C23.6705 34.9999 26.2806 34.2082 28.5006 32.7248C30.7207 31.2414 32.451 29.133 33.4728 26.6662C34.4946 24.1994 34.7619 21.485 34.241 18.8662C33.7201 16.2475 32.4344 13.842 30.5464 11.954C28.6584 10.066 26.2529 8.78024 23.6341 8.25934C21.0154 7.73844 18.301 8.00578 15.8342 9.02757C13.3674 10.0493 11.259 11.7797 9.77559 13.9997C8.29219 16.2198 7.50043 18.8299 7.50043 21.4999C7.5044 25.0791 8.92799 28.5106 11.4589 31.0415C13.9898 33.5724 17.4212 34.996 21.0004 34.9999Z" fill="#6100FF"/>
</svg>
