<svg width="20" height="20" viewBox="0 0 20 20" fill="none" xmlns="http://www.w3.org/2000/svg">
<path d="M9.95785 7.08268C9.61455 7.07819 9.33734 6.80098 9.33286 6.45768V2.29102C9.33286 1.94584 9.61268 1.66602 9.95785 1.66602C10.303 1.66602 10.5829 1.94584 10.5829 2.29102V6.45768C10.5784 6.80098 10.3012 7.07819 9.95785 7.08268Z" fill="#3F3F3F"/>
<path d="M9.95785 18.7493C9.61455 18.7449 9.33734 18.4677 9.33286 18.1243V13.9577C9.33286 13.6125 9.61268 13.3327 9.95785 13.3327C10.303 13.3327 10.5829 13.6125 10.5829 13.9577V18.1243C10.5784 18.4677 10.3012 18.7449 9.95785 18.7493Z" fill="#3F3F3F"/>
<path d="M7.80785 7.75768C7.60225 7.75919 7.40906 7.65948 7.29119 7.49102L4.90785 4.08268C4.81099 3.947 4.77234 3.77824 4.80051 3.61392C4.82868 3.44961 4.92132 3.30335 5.05785 3.20768C5.33518 3.03918 5.69499 3.10754 5.89119 3.36602L8.29119 6.77435C8.43104 6.96336 8.45124 7.21546 8.34327 7.42433C8.23529 7.6332 8.01793 7.76249 7.78285 7.75768H7.80785Z" fill="#3F3F3F"/>
<path d="M14.4995 17.316C14.2939 17.3175 14.1007 17.2178 13.9829 17.0493L11.6245 13.641C11.4266 13.358 11.4956 12.9681 11.7787 12.7702C12.0617 12.5723 12.4516 12.6413 12.6495 12.9243L15.0329 16.3327C15.1727 16.5217 15.1929 16.7738 15.0849 16.9827C14.977 17.1915 14.7596 17.3208 14.5245 17.316H14.4995Z" fill="#3F3F3F"/>
<path d="M6.43286 9.54935C6.36109 9.56087 6.28795 9.56087 6.21619 9.54935L2.30786 8.09102C2.14538 8.03316 2.01352 7.91155 1.94275 7.75427C1.87197 7.59699 1.8684 7.41765 1.93286 7.25768C1.9883 7.09361 2.11019 6.96042 2.26871 6.89068C2.42722 6.82093 2.60777 6.82105 2.76619 6.89102L6.62452 8.34102C6.90432 8.44858 7.06836 8.73965 7.01545 9.0347C6.96254 9.32976 6.7076 9.54571 6.40786 9.54935H6.43286Z" fill="#3F3F3F"/>
<path d="M17.3995 13.541C17.3255 13.5393 17.2523 13.5252 17.1829 13.4994L13.2912 12.0743C13.1272 12.0185 12.9937 11.8971 12.9226 11.7392C12.8515 11.5812 12.8492 11.4008 12.9162 11.241C12.974 11.0785 13.0957 10.9467 13.2529 10.8759C13.4102 10.8051 13.5895 10.8016 13.7495 10.866L17.6579 12.291C17.8203 12.3489 17.9522 12.4705 18.023 12.6278C18.0937 12.785 18.0973 12.9644 18.0329 13.1243C17.9397 13.39 17.6804 13.5606 17.3995 13.541Z" fill="#3F3F3F"/>
<path d="M2.30786 12.8827C1.98751 12.8908 1.71293 12.6553 1.67213 12.3375C1.63133 12.0196 1.83752 11.7224 2.14952 11.6493L6.17452 10.5743C6.33476 10.5311 6.50564 10.5533 6.64946 10.6362C6.79328 10.719 6.89824 10.8557 6.94119 11.016C7.02648 11.3491 6.83044 11.6894 6.49952 11.7827L2.45786 12.8577C2.40918 12.8726 2.35874 12.881 2.30786 12.8827Z" fill="#3F3F3F"/>
<path d="M13.5829 9.86602C13.2983 9.86481 13.0494 9.67392 12.9745 9.39935C12.9312 9.23911 12.9535 9.06823 13.0363 8.92441C13.1192 8.78059 13.2559 8.67563 13.4162 8.63268L17.4579 7.55768C17.7915 7.46794 18.1348 7.66568 18.2245 7.99935C18.3143 8.33302 18.1165 8.67627 17.7829 8.76602L13.7579 9.84102C13.7014 9.85918 13.6422 9.86763 13.5829 9.86602Z" fill="#3F3F3F"/>
<path d="M4.86619 16.8743C4.62465 16.8723 4.4059 16.7313 4.30434 16.5122C4.20278 16.293 4.23659 16.0349 4.39119 15.8493L7.06619 12.7077C7.29326 12.4506 7.68236 12.4176 7.94952 12.6327C8.07704 12.7396 8.15666 12.8929 8.17074 13.0588C8.18482 13.2246 8.13219 13.3891 8.02452 13.516L5.34952 16.6743C5.22607 16.8094 5.049 16.8827 4.86619 16.8743Z" fill="#3F3F3F"/>
<path d="M12.3662 7.95768C12.2201 7.96076 12.0778 7.91038 11.9662 7.81602C11.8387 7.70911 11.7591 7.55576 11.745 7.38995C11.7309 7.22414 11.7835 7.05956 11.8912 6.93268L14.5662 3.74102C14.6731 3.6135 14.8265 3.53388 14.9923 3.5198C15.1581 3.50572 15.3226 3.55835 15.4495 3.66602C15.688 3.88175 15.7206 4.2445 15.5245 4.49935L12.8495 7.70768C12.7335 7.85859 12.5564 7.95017 12.3662 7.95768Z" fill="#3F3F3F"/>
<path d="M9.95785 7.08268C9.61455 7.07819 9.33734 6.80098 9.33286 6.45768V2.29102C9.33286 1.94584 9.61268 1.66602 9.95785 1.66602C10.303 1.66602 10.5829 1.94584 10.5829 2.29102V6.45768C10.5784 6.80098 10.3012 7.07819 9.95785 7.08268Z" fill="#6100FF"/>
<path d="M9.95785 18.7493C9.61455 18.7449 9.33734 18.4677 9.33286 18.1243V13.9577C9.33286 13.6125 9.61268 13.3327 9.95785 13.3327C10.303 13.3327 10.5829 13.6125 10.5829 13.9577V18.1243C10.5784 18.4677 10.3012 18.7449 9.95785 18.7493Z" fill="#C099FF"/>
<path d="M7.80785 7.75768C7.60225 7.75919 7.40906 7.65948 7.29119 7.49102L4.90785 4.08268C4.81099 3.947 4.77234 3.77824 4.80051 3.61392C4.82868 3.44961 4.92132 3.30335 5.05785 3.20768C5.33518 3.03918 5.69499 3.10754 5.89119 3.36602L8.29119 6.77435C8.43104 6.96336 8.45124 7.21546 8.34327 7.42433C8.23529 7.6332 8.01793 7.76249 7.78285 7.75768H7.80785Z" fill="#8235FF"/>
<path d="M14.4995 17.316C14.2939 17.3175 14.1007 17.2178 13.9829 17.0493L11.6245 13.641C11.4266 13.358 11.4956 12.9681 11.7787 12.7702C12.0617 12.5723 12.4516 12.6413 12.6495 12.9243L15.0329 16.3327C15.1727 16.5217 15.1929 16.7738 15.0849 16.9827C14.977 17.1915 14.7596 17.3208 14.5245 17.316H14.4995Z" fill="#C8A7FF"/>
<path d="M6.43286 9.54935C6.36109 9.56087 6.28795 9.56087 6.21619 9.54935L2.30786 8.09102C2.14538 8.03316 2.01352 7.91155 1.94275 7.75427C1.87197 7.59699 1.8684 7.41765 1.93286 7.25768C1.9883 7.09361 2.11019 6.96042 2.26871 6.89068C2.42722 6.82093 2.60777 6.82105 2.76619 6.89102L6.62452 8.34102C6.90432 8.44858 7.06836 8.73965 7.01545 9.0347C6.96254 9.32976 6.7076 9.54571 6.40786 9.54935H6.43286Z" fill="#9757FF"/>
<path d="M17.3995 13.541C17.3255 13.5393 17.2523 13.5252 17.1829 13.4994L13.2912 12.0743C13.1272 12.0185 12.9937 11.8971 12.9226 11.7392C12.8515 11.5812 12.8492 11.4008 12.9162 11.241C12.974 11.0785 13.0957 10.9467 13.2529 10.8759C13.4102 10.8051 13.5895 10.8016 13.7495 10.866L17.6579 12.291C17.8203 12.3489 17.9522 12.4705 18.023 12.6278C18.0937 12.785 18.0973 12.9644 18.0329 13.1243C17.9397 13.39 17.6804 13.5606 17.3995 13.541Z" fill="#D5BBFF"/>
<path d="M2.30786 12.8827C1.98751 12.8908 1.71293 12.6553 1.67213 12.3375C1.63133 12.0196 1.83752 11.7224 2.14952 11.6493L6.17452 10.5743C6.33476 10.5311 6.50564 10.5533 6.64946 10.6362C6.79328 10.719 6.89824 10.8557 6.94119 11.016C7.02648 11.3491 6.83044 11.6894 6.49952 11.7827L2.45786 12.8577C2.40918 12.8726 2.35874 12.881 2.30786 12.8827Z" fill="#A167FF"/>
<path d="M13.5829 9.86602C13.2983 9.86481 13.0494 9.67392 12.9745 9.39935C12.9312 9.23911 12.9535 9.06823 13.0363 8.92441C13.1192 8.78059 13.2559 8.67563 13.4162 8.63268L17.4579 7.55768C17.7915 7.46794 18.1348 7.66568 18.2245 7.99935C18.3143 8.33302 18.1165 8.67627 17.7829 8.76602L13.7579 9.84102C13.7014 9.85918 13.6422 9.86763 13.5829 9.86602Z" fill="#E2D0FF"/>
<path d="M4.86619 16.8743C4.62465 16.8723 4.4059 16.7313 4.30434 16.5122C4.20278 16.293 4.23659 16.0349 4.39119 15.8493L7.06619 12.7077C7.29326 12.4506 7.68236 12.4176 7.94952 12.6327C8.07704 12.7396 8.15666 12.8929 8.17074 13.0588C8.18482 13.2246 8.13219 13.3891 8.02452 13.516L5.34952 16.6743C5.22607 16.8094 5.049 16.8827 4.86619 16.8743Z" fill="#B07FFF"/>
<path d="M12.3662 7.95768C12.2201 7.96076 12.0778 7.91038 11.9662 7.81602C11.8387 7.70911 11.7591 7.55576 11.745 7.38995C11.7309 7.22414 11.7835 7.05956 11.8912 6.93268L14.5662 3.74102C14.6731 3.6135 14.8265 3.53388 14.9923 3.5198C15.1581 3.50572 15.3226 3.55835 15.4495 3.66602C15.688 3.88175 15.7206 4.2445 15.5245 4.49935L12.8495 7.70768C12.7335 7.85859 12.5564 7.95017 12.3662 7.95768Z" fill="#EADDFF"/>
</svg>
