<svg width="79" height="81" viewBox="0 0 79 81" fill="none" xmlns="http://www.w3.org/2000/svg">
<path fill-rule="evenodd" clip-rule="evenodd" d="M39.5003 8.28047C28.8944 8.28047 20.9795 16.0582 20.9795 24.8414C20.9795 27.128 19.1368 28.9817 16.8638 28.9817C14.5907 28.9817 12.748 27.128 12.748 24.8414C12.748 10.76 25.1041 0 39.5003 0C53.8966 0 66.2526 10.76 66.2526 24.8414C66.2526 27.128 64.41 28.9817 62.1369 28.9817C59.8638 28.9817 58.0212 27.128 58.0212 24.8414C58.0212 16.0582 50.1063 8.28047 39.5003 8.28047Z" fill="#6100FF"/>
<path fill-rule="evenodd" clip-rule="evenodd" d="M16.8638 49.7891C19.1368 49.7891 20.9795 51.6427 20.9795 53.9293C20.9795 62.7125 28.8944 70.4902 39.5003 70.4902C50.1063 70.4902 58.0212 62.7125 58.0212 53.9293C58.0212 51.6427 59.8638 49.7891 62.1369 49.7891C64.41 49.7891 66.2526 51.6427 66.2526 53.9293C66.2526 68.0107 53.8966 78.7707 39.5003 78.7707C25.1041 78.7707 12.748 68.0107 12.748 53.9293C12.748 51.6427 14.5907 49.7891 16.8638 49.7891Z" fill="#6100FF"/>
<path fill-rule="evenodd" clip-rule="evenodd" d="M0.115234 39.7571C0.115234 37.4998 1.97138 35.6699 4.26106 35.6699H74.7401C77.0297 35.6699 78.8859 37.4998 78.8859 39.7571C78.8859 42.0144 77.0297 43.8442 74.7401 43.8442H4.26106C1.97138 43.8442 0.115234 42.0144 0.115234 39.7571Z" fill="#6100FF"/>
<path fill-rule="evenodd" clip-rule="evenodd" d="M39.8723 54.2476C42.1296 54.2476 43.9595 56.0623 43.9595 58.3009V72.4878C43.9595 74.7264 42.1296 76.5411 39.8723 76.5411C37.615 76.5411 35.7852 74.7264 35.7852 72.4878V58.3009C35.7852 56.0623 37.615 54.2476 39.8723 54.2476Z" fill="#6100FF"/>
<path fill-rule="evenodd" clip-rule="evenodd" d="M13.9296 1.24374C15.505 -0.41458 18.0592 -0.41458 19.6346 1.24374L25.6858 7.61333C27.2612 9.27165 27.2612 11.9603 25.6858 13.6186C24.1104 15.277 21.5561 15.277 19.9807 13.6186L13.9296 7.24905C12.3542 5.59073 12.3542 2.90206 13.9296 1.24374Z" fill="#6100FF"/>
<path fill-rule="evenodd" clip-rule="evenodd" d="M65.0705 1.24374C66.6459 2.90206 66.6459 5.59073 65.0705 7.24905L59.0194 13.6186C57.444 15.277 54.8898 15.277 53.3144 13.6186C51.739 11.9603 51.739 9.27165 53.3144 7.61333L59.3655 1.24374C60.9409 -0.41458 63.4951 -0.41458 65.0705 1.24374Z" fill="#6100FF"/>
<path fill-rule="evenodd" clip-rule="evenodd" d="M25.6858 67.3814C27.2612 69.0398 27.2612 71.7284 25.6858 73.3867L19.6346 79.7563C18.0592 81.4147 15.505 81.4147 13.9296 79.7563C12.3542 78.098 12.3542 75.4094 13.9296 73.751L19.9807 67.3814C21.5561 65.7231 24.1104 65.7231 25.6858 67.3814Z" fill="#6100FF"/>
<path fill-rule="evenodd" clip-rule="evenodd" d="M53.3144 67.3814C54.8898 65.7231 57.444 65.7231 59.0194 67.3814L65.0705 73.751C66.6459 75.4094 66.6459 78.098 65.0705 79.7563C63.4951 81.4147 60.9409 81.4147 59.3655 79.7563L53.3144 73.3867C51.739 71.7284 51.739 69.0398 53.3144 67.3814Z" fill="#6100FF"/>
</svg>
