<svg width="1065" height="1022" viewBox="0 0 1065 1022" fill="none" xmlns="http://www.w3.org/2000/svg">
    <path fill-rule="evenodd" clip-rule="evenodd"
          d="M431.928 8C431.928 3.58172 435.509 0 439.928 0H624.504C628.923 0 632.504 3.58172 632.504 8V192.804C632.504 197.222 628.923 200.804 624.504 200.804H439.928C435.509 200.804 431.928 197.222 431.928 192.804V8ZM440.926 0.999022C436.507 0.999022 432.926 4.58073 432.926 8.99901V191.804C432.926 196.223 436.507 199.804 440.926 199.804H623.506C627.925 199.804 631.506 196.223 631.506 191.804V8.99902C631.506 4.58074 627.925 0.999022 623.506 0.999022H440.926Z"
          fill="#6100FF"/>
    <path fill-rule="evenodd" clip-rule="evenodd"
          d="M106.071 237.981C102.95 234.853 102.95 229.782 106.071 226.654L236.6 95.8071C239.72 92.6791 244.779 92.6791 247.9 95.8071L378.428 226.654C381.549 229.782 381.549 234.853 378.428 237.981L247.9 368.828C244.779 371.956 239.72 371.956 236.6 368.828L106.071 237.981ZM107.481 226.654C104.361 229.782 104.361 234.853 107.481 237.981L236.6 367.414C239.72 370.542 244.779 370.542 247.9 367.414L377.018 237.981C380.138 234.853 380.138 229.782 377.018 226.654L247.9 97.2208C244.779 94.0928 239.72 94.0928 236.6 97.2208L107.481 226.654Z"
          fill="#6100FF"/>
    <path fill-rule="evenodd" clip-rule="evenodd"
          d="M247.478 949.406C244.358 952.534 239.299 952.534 236.178 949.406L105.649 818.559C102.529 815.431 102.529 810.36 105.649 807.232L236.178 676.385C239.299 673.257 244.358 673.257 247.478 676.385L378.007 807.232C381.127 810.36 381.127 815.431 378.007 818.559L247.478 949.406ZM236.178 947.992C239.299 951.12 244.358 951.12 247.478 947.992L376.596 818.559C379.717 815.431 379.717 810.36 376.596 807.232L247.478 677.799C244.358 674.671 239.299 674.671 236.178 677.799L107.06 807.232C103.939 810.36 103.939 815.431 107.06 818.559L236.178 947.992Z"
          fill="#6100FF"/>
    <path fill-rule="evenodd" clip-rule="evenodd"
          d="M632.504 1014C632.504 1018.42 628.922 1022 624.504 1022H439.927C435.509 1022 431.927 1018.42 431.927 1014V829.196C431.927 824.778 435.509 821.196 439.927 821.196H624.504C628.922 821.196 632.504 824.778 632.504 829.196V1014ZM623.506 1021C627.924 1021 631.506 1017.42 631.506 1013V830.196C631.506 825.777 627.924 822.196 623.506 822.196H440.925C436.507 822.196 432.925 825.777 432.925 830.196V1013C432.925 1017.42 436.507 1021 440.925 1021H623.506Z"
          fill="#6100FF"/>
    <path fill-rule="evenodd" clip-rule="evenodd"
          d="M201 603C201 607.418 197.418 611 193 611H8C3.58172 611 0 607.418 0 603L0 418C0 413.582 3.58172 410 8 410H193C197.418 410 201 413.582 201 418L201 603ZM192 610C196.418 610 200 606.418 200 602L200 419C200 414.582 196.418 411 192 411H9C4.58172 411 1 414.582 1 419L1 602C1 606.418 4.58172 610 9 610H192Z"
          fill="#6100FF"/>
    <path fill-rule="evenodd" clip-rule="evenodd"
          d="M1065 603C1065 607.418 1061.42 611 1057 611H872C867.582 611 864 607.418 864 603V418C864 413.582 867.582 410 872 410H1057C1061.42 410 1065 413.582 1065 418V603ZM1056 610C1060.42 610 1064 606.418 1064 602V419C1064 414.582 1060.42 411 1056 411H873C868.582 411 865 414.582 865 419V602C865 606.418 868.582 610 873 610H1056Z"
          fill="#6100FF"/>
    <path fill-rule="evenodd" clip-rule="evenodd"
          d="M958.434 237.981C961.554 234.853 961.554 229.782 958.434 226.654L827.905 95.8071C824.785 92.6791 819.726 92.6791 816.605 95.8071L686.077 226.654C682.956 229.782 682.956 234.853 686.077 237.981L816.605 368.828C819.726 371.956 824.785 371.956 827.905 368.828L958.434 237.981ZM957.024 226.654C960.144 229.782 960.144 234.853 957.024 237.981L827.905 367.414C824.785 370.542 819.726 370.542 816.605 367.414L687.487 237.981C684.367 234.853 684.367 229.782 687.487 226.654L816.605 97.2208C819.726 94.0928 824.785 94.0928 827.905 97.2208L957.024 226.654Z"
          fill="#6100FF"/>
    <path fill-rule="evenodd" clip-rule="evenodd"
          d="M817.026 949.406C820.146 952.534 825.205 952.534 828.326 949.406L958.854 818.559C961.975 815.431 961.975 810.36 958.854 807.232L828.326 676.385C825.205 673.257 820.146 673.257 817.026 676.385L686.497 807.232C683.377 810.36 683.377 815.431 686.497 818.559L817.026 949.406ZM828.326 947.992C825.205 951.12 820.146 951.12 817.026 947.992L687.907 818.559C684.787 815.431 684.787 810.36 687.907 807.232L817.026 677.799C820.146 674.671 825.205 674.671 828.326 677.799L957.444 807.232C960.565 810.36 960.565 815.431 957.444 818.559L828.326 947.992Z"
          fill="#6100FF"/>
</svg>
