<svg width="24" height="11" viewBox="0 0 24 11" fill="none" xmlns="http://www.w3.org/2000/svg">
<path d="M14.026 2.03497L5.62605 10.285C5.48577 10.423 5.29688 10.5003 5.10011 10.5003C4.90334 10.5003 4.71445 10.423 4.57417 10.285L0.974175 6.74965C0.903938 6.68059 0.847993 6.59836 0.809533 6.50768C0.771074 6.41699 0.750853 6.31961 0.750026 6.22111C0.749199 6.12261 0.767782 6.02491 0.804713 5.93358C0.841644 5.84226 0.896201 5.75911 0.965268 5.68887C1.03434 5.61864 1.11656 5.56269 1.20725 5.52423C1.29794 5.48577 1.39531 5.46555 1.49381 5.46473C1.59232 5.4639 1.69002 5.48248 1.78134 5.51941C1.87266 5.55634 1.95581 5.6109 2.02605 5.67997L5.10011 8.69872L12.9751 0.964343C13.1171 0.824855 13.3087 0.74748 13.5077 0.749238C13.6062 0.750109 13.7036 0.77038 13.7943 0.808897C13.8851 0.847413 13.9673 0.903419 14.0364 0.973717C14.1054 1.04402 14.16 1.12723 14.1969 1.21861C14.2338 1.30999 14.2523 1.40774 14.2515 1.50628C14.2506 1.60483 14.2303 1.70224 14.1918 1.79295C14.1533 1.88366 14.0973 1.9659 14.027 2.03497H14.026ZM23.0354 0.973717C22.9664 0.903366 22.8842 0.847313 22.7934 0.808764C22.7027 0.770214 22.6053 0.749923 22.5067 0.749053C22.4082 0.748182 22.3104 0.766748 22.219 0.803689C22.1276 0.84063 22.0444 0.895222 21.9742 0.964343L14.0992 8.69872L12.3339 6.96434C12.1919 6.82498 12.0004 6.74772 11.8014 6.74957C11.6025 6.75142 11.4124 6.83221 11.2731 6.97419C11.1337 7.11616 11.0565 7.30768 11.0583 7.50662C11.0602 7.70555 11.141 7.89561 11.2829 8.03497L13.5732 10.285C13.7135 10.423 13.9024 10.5003 14.0992 10.5003C14.2959 10.5003 14.4848 10.423 14.6251 10.285L23.0251 2.03497C23.0955 1.96599 23.1516 1.88381 23.1903 1.79313C23.2289 1.70245 23.2493 1.60504 23.2502 1.50648C23.2512 1.40792 23.2327 1.31013 23.1959 1.21872C23.159 1.1273 23.1045 1.04405 23.0354 0.973717Z" fill="black"/>
</svg>
