<svg width="202" height="201" viewBox="0 0 202 201" fill="none" xmlns="http://www.w3.org/2000/svg">
    <path fill-rule="evenodd" clip-rule="evenodd"
          d="M201.504 193C201.504 197.418 197.922 201 193.504 201L8.92727 201C4.509 201 0.927274 197.418 0.927274 193L0.927274 8.19649C0.927274 3.77821 4.50899 0.196493 8.92727 0.196493L193.504 0.196493C197.922 0.196493 201.504 3.77821 201.504 8.19649L201.504 193ZM192.506 200.001C196.924 200.001 200.506 196.419 200.506 192.001L200.506 9.19552C200.506 4.77724 196.924 1.19552 192.506 1.19552L9.92517 1.19552C5.50689 1.19552 1.92517 4.77723 1.92517 9.1955L1.92517 192.001C1.92517 196.419 5.50688 200.001 9.92516 200.001L192.506 200.001Z"
          fill="#6100FF"/>
</svg>
