<svg width="12" height="13" viewBox="0 0 12 13" fill="none" xmlns="http://www.w3.org/2000/svg">
<path d="M7.30975 6.50042L9.78007 4.03104C9.84975 3.96136 9.90502 3.87863 9.94273 3.78759C9.98045 3.69654 9.99986 3.59896 9.99986 3.50042C9.99986 3.40187 9.98045 3.30429 9.94273 3.21324C9.90502 3.1222 9.84975 3.03947 9.78007 2.96979C9.71038 2.90011 9.62766 2.84483 9.53661 2.80712C9.44557 2.76941 9.34799 2.75 9.24944 2.75C9.15089 2.75 9.05331 2.76941 8.96227 2.80712C8.87122 2.84483 8.7885 2.90011 8.71881 2.96979L6.24944 5.4401L3.78007 2.96979C3.63934 2.82906 3.44846 2.75 3.24944 2.75C3.05042 2.75 2.85955 2.82906 2.71882 2.96979C2.57808 3.11052 2.49902 3.30139 2.49902 3.50042C2.49902 3.69944 2.57808 3.89031 2.71882 4.03104L5.18913 6.50042L2.71882 8.96979C2.64913 9.03947 2.59386 9.1222 2.55615 9.21324C2.51843 9.30429 2.49902 9.40187 2.49902 9.50042C2.49902 9.59896 2.51843 9.69654 2.55615 9.78759C2.59386 9.87863 2.64913 9.96136 2.71882 10.031C2.7885 10.1007 2.87122 10.156 2.96227 10.1937C3.05331 10.2314 3.15089 10.2508 3.24944 10.2508C3.34799 10.2508 3.44557 10.2314 3.53661 10.1937C3.62766 10.156 3.71038 10.1007 3.78007 10.031L6.24944 7.56073L8.71881 10.031C8.7885 10.1007 8.87122 10.156 8.96227 10.1937C9.05331 10.2314 9.15089 10.2508 9.24944 10.2508C9.34799 10.2508 9.44557 10.2314 9.53661 10.1937C9.62766 10.156 9.71038 10.1007 9.78007 10.031C9.84975 9.96136 9.90502 9.87863 9.94273 9.78759C9.98045 9.69654 9.99986 9.59896 9.99986 9.50042C9.99986 9.40187 9.98045 9.30429 9.94273 9.21324C9.90502 9.1222 9.84975 9.03947 9.78007 8.96979L7.30975 6.50042Z" fill="#3F3F3F"/>
</svg>