<svg width="12" height="22" viewBox="0 0 12 22" fill="none" xmlns="http://www.w3.org/2000/svg">
    <path d="M11.7075 20.2921C11.8004 20.385 11.8741 20.4953 11.9244 20.6167C11.9747 20.7381 12.0006 20.8682 12.0006 20.9996C12.0006 21.131 11.9747 21.2611 11.9244 21.3825C11.8741 21.5039 11.8004 21.6142 11.7075 21.7071C11.6146 21.8 11.5043 21.8737 11.3829 21.924C11.2615 21.9743 11.1314 22.0001 11 22.0001C10.8686 22.0001 10.7385 21.9743 10.6171 21.924C10.4957 21.8737 10.3854 21.8 10.2925 21.7071L0.2925 11.7071C0.199524 11.6142 0.125766 11.5039 0.0754414 11.3825C0.0251171 11.2611 -0.000785828 11.131 -0.000785828 10.9996C-0.000785828 10.8682 0.0251171 10.738 0.0754414 10.6166C0.125766 10.4952 0.199524 10.385 0.2925 10.2921L10.2925 0.292079C10.4801 0.104439 10.7346 -0.000976568 11 -0.000976562C11.2654 -0.000976557 11.5199 0.104439 11.7075 0.292079C11.8951 0.47972 12.0006 0.734215 12.0006 0.999579C12.0006 1.26494 11.8951 1.51944 11.7075 1.70708L2.41375 10.9996L11.7075 20.2921Z"
          fill="#343330"/>
</svg>
