<svg width="12" height="22" viewBox="0 0 12 22" fill="none" xmlns="http://www.w3.org/2000/svg">
    <path d="M11.7074 11.7071L1.70745 21.7071C1.61454 21.8 1.50424 21.8737 1.38284 21.924C1.26145 21.9743 1.13134 22.0001 0.999946 22.0001C0.868551 22.0001 0.738442 21.9743 0.617049 21.924C0.495656 21.8737 0.385355 21.8 0.292445 21.7071C0.199535 21.6142 0.125835 21.5039 0.075552 21.3825C0.0252693 21.2611 -0.000610352 21.131 -0.000610352 20.9996C-0.000610352 20.8682 0.0252693 20.7381 0.075552 20.6167C0.125835 20.4953 0.199535 20.385 0.292445 20.2921L9.5862 10.9996L0.292445 1.70708C0.104805 1.51944 -0.000610354 1.26494 -0.000610352 0.999579C-0.00061035 0.734215 0.104805 0.47972 0.292445 0.292079C0.480086 0.104439 0.734582 -0.000976561 0.999946 -0.000976562C1.26531 -0.000976564 1.51981 0.104439 1.70745 0.292079L11.7074 10.2921C11.8004 10.385 11.8742 10.4952 11.9245 10.6166C11.9748 10.738 12.0007 10.8682 12.0007 10.9996C12.0007 11.131 11.9748 11.2611 11.9245 11.3825C11.8742 11.5039 11.8004 11.6142 11.7074 11.7071Z"
          fill="#343330"/>
</svg>
