<svg width="28" height="28" viewBox="0 0 28 28" fill="none" xmlns="http://www.w3.org/2000/svg">
<path d="M27.2605 12.3622L16.4424 1.54403C15.8543 0.958763 14.9987 0.731663 14.1979 0.948276C13.397 1.16489 12.7725 1.79231 12.5597 2.59419C12.3469 3.39606 12.578 4.25058 13.166 4.83585L20.0124 11.6668H2.37873C1.09843 11.6668 0.0605469 12.7046 0.0605469 13.9849C0.0605469 15.2652 1.09843 16.3031 2.37873 16.3031H20.0124L13.166 23.134C12.5039 23.797 12.3059 24.7934 12.6644 25.6591C13.0228 26.5248 13.8672 27.0896 14.8042 27.0904C15.4263 27.0812 16.0178 26.8189 16.4424 26.364L27.2605 15.5458C28.1645 14.6408 28.1645 13.1746 27.2605 12.2695V12.3622Z" fill="black"/>
</svg>
