<svg width="32" height="32" viewBox="0 0 32 32" fill="none" xmlns="http://www.w3.org/2000/svg">
<path d="M26.7071 15.2926C26.8001 15.3854 26.8738 15.4957 26.9241 15.6171C26.9745 15.7385 27.0004 15.8687 27.0004 16.0001C27.0004 16.1315 26.9745 16.2616 26.9241 16.383C26.8738 16.5044 26.8001 16.6147 26.7071 16.7076L16.7071 26.7076C16.6142 26.8005 16.5039 26.8743 16.3825 26.9246C16.2611 26.975 16.131 27.0009 15.9996 27.0009C15.8682 27.0009 15.738 26.975 15.6166 26.9246C15.4952 26.8743 15.385 26.8005 15.2921 26.7076L5.29208 16.7076C5.10444 16.5199 4.99902 16.2654 4.99902 16.0001C4.99902 15.7347 5.10444 15.4802 5.29208 15.2926C5.47972 15.1049 5.73422 14.9995 5.99958 14.9995C6.26494 14.9995 6.51944 15.1049 6.70708 15.2926L15.9996 24.5863L25.2921 15.2926C25.385 15.1996 25.4952 15.1258 25.6166 15.0755C25.738 15.0252 25.8682 14.9993 25.9996 14.9993C26.131 14.9993 26.2611 15.0252 26.3825 15.0755C26.5039 15.1258 26.6142 15.1996 26.7071 15.2926ZM15.2921 16.7076C15.385 16.8005 15.4952 16.8743 15.6166 16.9246C15.738 16.975 15.8682 17.0009 15.9996 17.0009C16.131 17.0009 16.2611 16.975 16.3825 16.9246C16.5039 16.8743 16.6142 16.8005 16.7071 16.7076L26.7071 6.70757C26.8947 6.51993 27.0001 6.26543 27.0001 6.00007C27.0001 5.7347 26.8947 5.48021 26.7071 5.29257C26.5194 5.10493 26.2649 4.99951 25.9996 4.99951C25.7342 4.99951 25.4797 5.10493 25.2921 5.29257L15.9996 14.5863L6.70708 5.29257C6.51944 5.10493 6.26494 4.99951 5.99958 4.99951C5.73422 4.99951 5.47972 5.10493 5.29208 5.29257C5.10444 5.48021 4.99902 5.7347 4.99902 6.00007C4.99902 6.26543 5.10444 6.51993 5.29208 6.70757L15.2921 16.7076Z" fill="#6100FF"/>
</svg>
