<svg width="36" height="36" viewBox="0 0 36 36" fill="none" xmlns="http://www.w3.org/2000/svg">
<path d="M10.5 13.5H1.5C1.10218 13.5 0.720645 13.342 0.43934 13.0607C0.158036 12.7794 0 12.3978 0 12V3C0 2.60218 0.158036 2.22064 0.43934 1.93934C0.720645 1.65804 1.10218 1.5 1.5 1.5C1.89782 1.5 2.27936 1.65804 2.56066 1.93934C2.84196 2.22064 3 2.60218 3 3V7.47187C5.90063 4.2 10.9894 0 18 0C26.0287 0 30.8588 4.73813 31.0613 4.93875C31.3432 5.21971 31.502 5.60118 31.5027 5.99922C31.5034 6.39727 31.346 6.77929 31.065 7.06125C30.784 7.34321 30.4026 7.50201 30.0045 7.50271C29.6065 7.50341 29.2245 7.34596 28.9425 7.065C28.8919 7.01438 24.735 3 18 3C11.4375 3 6.70687 7.62187 4.395 10.5H10.5C10.8978 10.5 11.2794 10.658 11.5607 10.9393C11.842 11.2206 12 11.6022 12 12C12 12.3978 11.842 12.7794 11.5607 13.0607C11.2794 13.342 10.8978 13.5 10.5 13.5ZM34.5 22.5H25.5C25.1022 22.5 24.7206 22.658 24.4393 22.9393C24.158 23.2206 24 23.6022 24 24C24 24.3978 24.158 24.7794 24.4393 25.0607C24.7206 25.342 25.1022 25.5 25.5 25.5H31.605C29.2931 28.3781 24.5625 33 18 33C11.265 33 7.10812 28.9856 7.0575 28.935C6.77554 28.654 6.39352 28.4966 5.99547 28.4973C5.59743 28.498 5.21596 28.6568 4.935 28.9387C4.65404 29.2207 4.49659 29.6027 4.49729 30.0008C4.49799 30.3988 4.65679 30.7803 4.93875 31.0613C5.14125 31.2619 9.97125 36 18 36C25.0106 36 30.0994 31.8 33 28.5281V33C33 33.3978 33.158 33.7794 33.4393 34.0607C33.7206 34.342 34.1022 34.5 34.5 34.5C34.8978 34.5 35.2794 34.342 35.5607 34.0607C35.842 33.7794 36 33.3978 36 33V24C36 23.6022 35.842 23.2206 35.5607 22.9393C35.2794 22.658 34.8978 22.5 34.5 22.5Z" fill="#6100FF"/>
</svg>
