<svg width="453" height="478" viewBox="0 0 453 478" fill="none" xmlns="http://www.w3.org/2000/svg">
<g filter="url(#filter0_d_278_46232)">
<rect x="36" width="380.606" height="382" rx="8" fill="white"/>
<path fill-rule="evenodd" clip-rule="evenodd" d="M226.302 113.037C200.638 113.037 181.486 131.857 181.486 153.11C181.486 158.643 177.028 163.128 171.527 163.128C166.027 163.128 161.568 158.643 161.568 153.11C161.568 119.037 191.467 93 226.302 93C261.138 93 291.036 119.037 291.036 153.11C291.036 158.643 286.577 163.128 281.077 163.128C275.577 163.128 271.118 158.643 271.118 153.11C271.118 131.857 251.966 113.037 226.302 113.037Z" fill="#6100FF"/>
<path fill-rule="evenodd" clip-rule="evenodd" d="M171.527 213.478C177.028 213.478 181.486 217.963 181.486 223.496C181.486 244.749 200.638 263.569 226.302 263.569C251.966 263.569 271.118 244.749 271.118 223.496C271.118 217.963 275.577 213.478 281.077 213.478C286.577 213.478 291.036 217.963 291.036 223.496C291.036 257.569 261.138 283.606 226.302 283.606C191.467 283.606 161.568 257.569 161.568 223.496C161.568 217.963 166.027 213.478 171.527 213.478Z" fill="#6100FF"/>
<path fill-rule="evenodd" clip-rule="evenodd" d="M131 189.202C131 183.74 135.491 179.312 141.032 179.312H311.574C317.114 179.312 321.606 183.74 321.606 189.202C321.606 194.664 317.114 199.092 311.574 199.092H141.032C135.491 199.092 131 194.664 131 189.202Z" fill="#6100FF"/>
<path fill-rule="evenodd" clip-rule="evenodd" d="M227.202 224.267C232.664 224.267 237.092 228.658 237.092 234.075V268.403C237.092 273.82 232.664 278.212 227.202 278.212C221.74 278.212 217.312 273.82 217.312 268.403V234.075C217.312 228.658 221.74 224.267 227.202 224.267Z" fill="#6100FF"/>
<path fill-rule="evenodd" clip-rule="evenodd" d="M164.427 96.0095C168.24 91.9968 174.42 91.9968 178.232 96.0095L192.874 111.422C196.687 115.435 196.687 121.941 192.874 125.954C189.062 129.966 182.882 129.966 179.07 125.954L164.427 110.541C160.615 106.528 160.615 100.022 164.427 96.0095Z" fill="#6100FF"/>
<path fill-rule="evenodd" clip-rule="evenodd" d="M288.178 96.0095C291.99 100.022 291.99 106.528 288.178 110.541L273.536 125.954C269.724 129.966 263.543 129.966 259.731 125.954C255.919 121.941 255.919 115.435 259.731 111.422L274.373 96.0095C278.185 91.9968 284.366 91.9968 288.178 96.0095Z" fill="#6100FF"/>
<path fill-rule="evenodd" clip-rule="evenodd" d="M192.874 256.047C196.687 260.059 196.687 266.565 192.874 270.578L178.232 285.991C174.42 290.004 168.24 290.004 164.427 285.991C160.615 281.978 160.615 275.472 164.427 271.459L179.07 256.047C182.882 252.034 189.062 252.034 192.874 256.047Z" fill="#6100FF"/>
<path fill-rule="evenodd" clip-rule="evenodd" d="M259.731 256.047C263.543 252.034 269.724 252.034 273.536 256.047L288.178 271.459C291.99 275.472 291.99 281.978 288.178 285.991C284.366 290.004 278.185 290.004 274.373 285.991L259.731 270.578C255.919 266.565 255.919 260.059 259.731 256.047Z" fill="#6100FF"/>
</g>
<defs>
<filter id="filter0_d_278_46232" x="0" y="0" width="452.605" height="478" filterUnits="userSpaceOnUse" color-interpolation-filters="sRGB">
<feFlood flood-opacity="0" result="BackgroundImageFix"/>
<feColorMatrix in="SourceAlpha" type="matrix" values="0 0 0 0 0 0 0 0 0 0 0 0 0 0 0 0 0 0 127 0" result="hardAlpha"/>
<feMorphology radius="24" operator="erode" in="SourceAlpha" result="effect1_dropShadow_278_46232"/>
<feOffset dy="60"/>
<feGaussianBlur stdDeviation="30"/>
<feComposite in2="hardAlpha" operator="out"/>
<feColorMatrix type="matrix" values="0 0 0 0 0.380392 0 0 0 0 0 0 0 0 0 1 0 0 0 0.25 0"/>
<feBlend mode="normal" in2="BackgroundImageFix" result="effect1_dropShadow_278_46232"/>
<feBlend mode="normal" in="SourceGraphic" in2="effect1_dropShadow_278_46232" result="shape"/>
</filter>
</defs>
</svg>
