<svg width="20" height="20" viewBox="0 0 20 20" fill="none" xmlns="http://www.w3.org/2000/svg">
<path fill-rule="evenodd" clip-rule="evenodd" d="M13.2585 1.37783L18.5668 6.68616C19.5369 7.66031 19.5369 9.23535 18.5668 10.2095L15.3118 13.4645C15.1269 13.6554 14.9698 13.8714 14.8452 14.1062L13.0485 17.7112C12.687 18.4268 12.0051 18.9264 11.2139 19.0556C10.4226 19.1848 9.61721 18.928 9.04685 18.3645L5.93185 15.2495L2.16351 19.0178C2.00032 19.1831 1.77742 19.2756 1.54518 19.2745C1.31214 19.2798 1.08766 19.1866 0.926847 19.0178C0.760075 18.8553 0.666016 18.6324 0.666016 18.3995C0.666016 18.1666 0.760075 17.9437 0.926847 17.7812L4.69518 14.0128L1.58018 10.8978C1.01168 10.3297 0.751417 9.52269 0.880919 8.7295C1.01042 7.9363 1.51385 7.25395 2.23351 6.89616L5.83851 5.0995C6.0733 4.97492 6.28932 4.81781 6.48018 4.63283L9.75851 1.37783C10.7324 0.429395 12.2846 0.429395 13.2585 1.37783ZM13.9935 12.1345L17.2368 8.89116C17.49 8.65535 17.5056 8.25953 17.2718 8.0045L11.9752 2.70783C11.8588 2.58809 11.6989 2.52053 11.5318 2.52053C11.3648 2.52053 11.2049 2.58809 11.0885 2.70783L7.84518 5.95116C7.50432 6.28627 7.11004 6.56226 6.67851 6.76783L3.07351 8.57616C2.89107 8.66089 2.76379 8.83206 2.73518 9.03116C2.69731 9.22825 2.76341 9.43095 2.91018 9.56783L10.3768 17.0345C10.4873 17.1558 10.6445 17.2238 10.8085 17.2212C11.0479 17.2252 11.2673 17.0881 11.3685 16.8712L13.1768 13.3012C13.3824 12.8696 13.6584 12.4754 13.9935 12.1345Z" fill="#6100FF"/>
</svg>
