<svg width="19" height="19" viewBox="0 0 19 19" fill="none" xmlns="http://www.w3.org/2000/svg">
    <path d="M18.5 9.98828C18.5 10.1872 18.421 10.378 18.2803 10.5186C18.1397 10.6593 17.9489 10.7383 17.75 10.7383H10.25V18.2383C10.25 18.4372 10.171 18.628 10.0303 18.7686C9.88968 18.9093 9.69891 18.9883 9.5 18.9883C9.30109 18.9883 9.11032 18.9093 8.96967 18.7686C8.82902 18.628 8.75 18.4372 8.75 18.2383V10.7383H1.25C1.05109 10.7383 0.860322 10.6593 0.71967 10.5186C0.579018 10.378 0.5 10.1872 0.5 9.98828C0.5 9.78937 0.579018 9.5986 0.71967 9.45795C0.860322 9.3173 1.05109 9.23828 1.25 9.23828H8.75V1.73828C8.75 1.53937 8.82902 1.3486 8.96967 1.20795C9.11032 1.0673 9.30109 0.988281 9.5 0.988281C9.69891 0.988281 9.88968 1.0673 10.0303 1.20795C10.171 1.3486 10.25 1.53937 10.25 1.73828V9.23828H17.75C17.9489 9.23828 18.1397 9.3173 18.2803 9.45795C18.421 9.5986 18.5 9.78937 18.5 9.98828Z"
          fill="#6100FF"/>
</svg>
