<svg width="21" height="21" viewBox="0 0 21 21" fill="none" xmlns="http://www.w3.org/2000/svg">
<path d="M20.8467 1.03667C20.7082 0.714244 20.3926 0.503834 20.0417 0.5H14.2083C13.7251 0.5 13.3333 0.891751 13.3333 1.375C13.3333 1.85825 13.7251 2.25 14.2083 2.25H17.93L11.2567 8.92333C10.9155 9.26495 10.9155 9.81838 11.2567 10.16C11.5983 10.5012 12.1517 10.5012 12.4933 10.16L19.1667 3.48667V7.20833C19.1667 7.69158 19.5584 8.08333 20.0417 8.08333C20.5249 8.08333 20.9167 7.69158 20.9167 7.20833V1.375C20.9161 1.25869 20.8923 1.14367 20.8467 1.03667Z" fill="#6100FF"/>
<path d="M17.7083 9.83333C17.2277 9.83962 16.8396 10.2277 16.8333 10.7083V15.375C16.8269 17.4664 15.1331 19.1603 13.0417 19.1667H6.04167C3.95025 19.1603 2.25641 17.4664 2.25 15.375V8.375C2.25641 6.28358 3.95025 4.58974 6.04167 4.58333H10.7083C11.1916 4.58333 11.5833 4.19158 11.5833 3.70833C11.5833 3.22508 11.1916 2.83333 10.7083 2.83333H6.04167C2.98109 2.83333 0.5 5.31442 0.5 8.375V15.375C0.5 18.4356 2.98109 20.9167 6.04167 20.9167H13.0417C16.1022 20.9167 18.5833 18.4356 18.5833 15.375V10.7083C18.577 10.2277 18.189 9.83962 17.7083 9.83333Z" fill="#6100FF"/>
</svg>
